<mxfile host="app.diagrams.net" modified="2023-09-08T16:14:37.761Z" agent="Mozilla/5.0 (Macintosh; Intel Mac OS X 10_15_7) AppleWebKit/537.36 (KHTML, like Gecko) Chrome/116.0.0.0 Safari/537.36" etag="UB0cFmU4VRTDFTyRQf-Q" version="21.7.1" type="device">
  <diagram name="Page-1" id="sNt43C2CeURIw9OieRAq">
    <mxGraphModel dx="1024" dy="748" grid="1" gridSize="10" guides="1" tooltips="1" connect="1" arrows="1" fold="1" page="1" pageScale="1" pageWidth="850" pageHeight="1100" math="0" shadow="0">
      <root>
        <mxCell id="0" />
        <mxCell id="1" parent="0" />
        <mxCell id="Sj3wQn-dgsAGX83FZfN--14" value="" style="edgeStyle=orthogonalEdgeStyle;rounded=0;orthogonalLoop=1;jettySize=auto;html=1;" edge="1" parent="1" source="Sj3wQn-dgsAGX83FZfN--1" target="Sj3wQn-dgsAGX83FZfN--3">
          <mxGeometry relative="1" as="geometry" />
        </mxCell>
        <mxCell id="Sj3wQn-dgsAGX83FZfN--1" value="Header" style="rounded=0;whiteSpace=wrap;html=1;" vertex="1" parent="1">
          <mxGeometry x="30" y="20" width="330" height="60" as="geometry" />
        </mxCell>
        <mxCell id="Sj3wQn-dgsAGX83FZfN--2" value="Coffee List&lt;br&gt;&lt;br&gt;&lt;br&gt;&lt;br&gt;&lt;br&gt;&lt;br&gt;&lt;br&gt;&lt;br&gt;&lt;br&gt;&lt;br&gt;&lt;br&gt;&lt;br&gt;&lt;br&gt;&lt;br&gt;&lt;br&gt;&lt;br&gt;&lt;br&gt;&lt;br&gt;&lt;br&gt;&lt;br&gt;&lt;br&gt;&lt;br&gt;" style="rounded=0;whiteSpace=wrap;html=1;" vertex="1" parent="1">
          <mxGeometry x="30" y="90" width="330" height="370" as="geometry" />
        </mxCell>
        <mxCell id="Sj3wQn-dgsAGX83FZfN--3" value="Coffee Type&lt;br&gt;name, origin, price, roast" style="rounded=0;whiteSpace=wrap;html=1;" vertex="1" parent="1">
          <mxGeometry x="40" y="140" width="310" height="60" as="geometry" />
        </mxCell>
        <mxCell id="Sj3wQn-dgsAGX83FZfN--4" value="Coffee" style="rounded=0;whiteSpace=wrap;html=1;" vertex="1" parent="1">
          <mxGeometry x="40" y="300" width="310" height="60" as="geometry" />
        </mxCell>
        <mxCell id="Sj3wQn-dgsAGX83FZfN--5" value="Coffee" style="rounded=0;whiteSpace=wrap;html=1;" vertex="1" parent="1">
          <mxGeometry x="40" y="220" width="310" height="60" as="geometry" />
        </mxCell>
        <mxCell id="Sj3wQn-dgsAGX83FZfN--6" value="Add Coffee Type&lt;br&gt;A form that will intake:&lt;br&gt;name, origin, price, roast, qty lbs" style="rounded=0;whiteSpace=wrap;html=1;" vertex="1" parent="1">
          <mxGeometry x="40" y="380" width="310" height="60" as="geometry" />
        </mxCell>
        <mxCell id="Sj3wQn-dgsAGX83FZfN--7" value="Sale Button&lt;br&gt;(reduces total supply by 1lb)" style="rounded=0;whiteSpace=wrap;html=1;" vertex="1" parent="1">
          <mxGeometry x="420" y="90" width="120" height="60" as="geometry" />
        </mxCell>
        <mxCell id="Sj3wQn-dgsAGX83FZfN--8" value="Restock Button&lt;br&gt;(adds 130lbs to supply" style="rounded=0;whiteSpace=wrap;html=1;" vertex="1" parent="1">
          <mxGeometry x="420" y="170" width="120" height="60" as="geometry" />
        </mxCell>
        <mxCell id="Sj3wQn-dgsAGX83FZfN--11" value="" style="endArrow=classic;html=1;rounded=0;entryX=1;entryY=0.5;entryDx=0;entryDy=0;exitX=0;exitY=0.5;exitDx=0;exitDy=0;" edge="1" parent="1" source="Sj3wQn-dgsAGX83FZfN--8" target="Sj3wQn-dgsAGX83FZfN--3">
          <mxGeometry width="50" height="50" relative="1" as="geometry">
            <mxPoint x="400" y="410" as="sourcePoint" />
            <mxPoint x="450" y="360" as="targetPoint" />
          </mxGeometry>
        </mxCell>
        <mxCell id="Sj3wQn-dgsAGX83FZfN--13" value="" style="endArrow=classic;html=1;rounded=0;entryX=1;entryY=0.5;entryDx=0;entryDy=0;exitX=0;exitY=0.5;exitDx=0;exitDy=0;" edge="1" parent="1" source="Sj3wQn-dgsAGX83FZfN--7" target="Sj3wQn-dgsAGX83FZfN--3">
          <mxGeometry width="50" height="50" relative="1" as="geometry">
            <mxPoint x="430" y="210" as="sourcePoint" />
            <mxPoint x="360" y="180" as="targetPoint" />
          </mxGeometry>
        </mxCell>
      </root>
    </mxGraphModel>
  </diagram>
</mxfile>
